<svg width="383" height="65" viewBox="0 0 383 65" fill="none" xmlns="http://www.w3.org/2000/svg">
<g clip-path="url(#clip0_169_6421)">
<path fill-rule="evenodd" clip-rule="evenodd" d="M8 0C3.58172 0 0 3.58172 0 8V49C0 53.4183 3.58172 57 8 57H184.75L190.3 64.4C190.9 65.2 192.1 65.2 192.7 64.4L198.25 57H375C379.418 57 383 53.4183 383 49V8C383 3.58172 379.418 0 375 0H8Z" fill="#494D6D"/>
<circle cx="32.5" cy="28.5" r="11.5" stroke="#EEEEEE" stroke-width="2"/>
<rect x="31" y="27" width="3" height="8" rx="1.5" fill="#EEEEEE"/>
<circle cx="32.5" cy="23.5" r="1.5" fill="#EEEEEE"/>
<path d="M57.144 28.552C57.144 23.91 59.696 19.84 64.712 19.84C69.86 19.84 72.39 23.866 72.39 28.552C72.39 33.26 69.882 37.286 64.712 37.286C59.674 37.286 57.144 33.26 57.144 28.552ZM64.712 35.746C68.584 35.746 70.432 32.226 70.432 28.552C70.432 24.878 68.606 21.38 64.712 21.38C61.016 21.38 59.102 24.922 59.102 28.552C59.102 32.226 60.972 35.746 64.712 35.746ZM77.3813 20.104H75.4893V37H77.3813V28.926L85.7853 37H88.4033L79.0312 28.046L87.2812 20.104H84.6853L77.3813 27.188V20.104ZM106.523 39.772H91.7613V34.844H103.949V32.974H91.7613V31.456H106.017V36.296H93.8293V38.276H106.523V39.772ZM91.8713 26.792V22.15H103.883V20.632H91.8713V19.07H105.819V23.624H93.8293V25.252H106.325V26.792H91.8713ZM108.635 28.31V29.872H89.0773V28.31H108.635ZM133.396 24.988H118.942V18.96H120.9V23.382H133.396V24.988ZM135.706 28.42H126.95V30.466H133.088V35.79H120.9V38.276H133.594V39.772H118.832V34.294H131.02V31.984H118.832V30.466H124.882V28.42H116.148V26.836H135.706V28.42ZM154.349 39.684H152.369V27.716H148.343V26.066H152.369V18.96H154.349V39.684ZM149.927 34.162C146.033 34.58 141.941 34.668 138.399 34.668V26.462H145.153V21.864H138.399V20.258H147.111V28.024H140.357V33.018C144.713 33.018 146.407 32.842 149.927 32.578V34.162ZM175.237 39.684H173.257V26.704H168.417V25.12H173.257V18.96H175.237V39.684ZM165.161 19.884V25.538C165.161 29.036 167.933 31.566 170.705 32.908L169.737 34.404C167.933 33.392 165.381 31.698 164.171 29.058C163.049 31.742 160.761 33.436 158.451 34.888L157.219 33.524C160.321 31.786 163.115 29.124 163.115 25.494V19.884H165.161ZM204.419 25.164H201.053V30.994H199.095V18.96H201.053V23.558H204.419V25.164ZM201.647 35.79C201.647 38.32 199.557 40.036 194.739 40.036C189.921 40.036 187.809 38.342 187.809 35.79C187.809 33.26 189.921 31.456 194.739 31.456C199.557 31.456 201.647 33.238 201.647 35.79ZM199.601 35.812C199.601 34.052 197.841 32.996 194.761 32.996C191.637 32.996 189.877 34.052 189.877 35.812C189.877 37.462 191.637 38.518 194.761 38.518C197.841 38.518 199.601 37.55 199.601 35.812ZM196.103 29.916C194.145 29.19 191.637 27.694 190.603 25.758C189.591 27.936 187.237 29.344 185.125 30.422L184.003 29.168C186.709 27.804 189.547 26.044 189.547 22.7V19.598H191.571V22.678C191.571 25.89 194.409 27.474 196.961 28.442L196.103 29.916ZM207.2 26.924V25.34H210.412L210.06 21.952H212.018L212.348 25.34H217.826L218.09 21.952H220.158L219.762 25.34H222.952V26.924H207.2ZM207.684 21.072V19.444H222.468V21.072H207.684ZM224.844 30.598H216.088V32.82H222.226V39.552H207.97V32.82H214.02V30.598H205.286V28.97H224.844V30.598ZM220.224 38.012V34.382H209.95V38.012H220.224ZM245.534 27.672V29.256H225.976V27.672H245.534ZM243.422 39.772H228.66V34.558H240.848V32.446H228.66V30.928H242.916V36.054H230.728V38.276H243.422V39.772ZM228.55 22.546C228.55 20.324 231.19 18.894 235.722 18.894C240.144 18.894 242.938 20.302 242.938 22.546C242.938 24.966 240.166 26.286 235.722 26.286C231.19 26.286 228.55 24.922 228.55 22.546ZM230.618 22.546C230.618 24.152 232.906 24.746 235.722 24.746C238.582 24.746 240.848 24.152 240.848 22.546C240.848 21.116 238.538 20.412 235.722 20.412C232.906 20.412 230.618 21.138 230.618 22.546ZM259.668 22.876C262.858 22.876 264.772 24.152 264.772 25.956C264.772 27.562 263.276 28.772 260.592 29.036V30.268C262.638 30.18 264.596 30.048 266.224 29.894V31.39C262.748 31.94 257.82 32.006 252.848 32.006V30.4C254.85 30.4 256.786 30.378 258.634 30.334V28.992C256.06 28.75 254.586 27.54 254.586 25.956C254.586 24.174 256.368 22.876 259.668 22.876ZM272.912 26.902H269.546V32.248H267.566V18.96H269.546V25.296H272.912V26.902ZM269.546 39.772H267.566V35.042H255.73V33.436H269.546V39.772ZM265.63 22.194H253.508V20.676H258.612V18.63H260.658V20.676H265.63V22.194ZM262.814 25.956C262.814 24.922 261.824 24.284 259.668 24.284C257.578 24.284 256.522 24.922 256.522 25.956C256.522 26.946 257.578 27.65 259.668 27.65C261.824 27.65 262.814 26.902 262.814 25.956ZM291.226 33.854H289.246V18.96H291.226V33.854ZM291.688 39.354H277.674V32.182H279.676V37.726H291.688V39.354ZM279.984 19.752C283.372 19.752 285.506 22.128 285.506 24.922C285.506 27.738 283.438 30.114 279.984 30.114C276.508 30.114 274.44 27.738 274.44 24.922C274.44 22.128 276.596 19.752 279.984 19.752ZM279.984 21.336C277.586 21.336 276.508 23.074 276.508 24.922C276.508 26.792 277.608 28.53 279.984 28.53C282.404 28.53 283.438 26.792 283.438 24.922C283.438 23.074 282.448 21.336 279.984 21.336ZM305.777 30.378C305.777 33.282 303.863 35.658 300.497 35.658C297.241 35.658 295.217 33.436 295.217 30.378C295.217 27.144 297.263 25.076 300.497 25.076C303.863 25.076 305.777 27.1 305.777 30.378ZM310.925 18.96V27.606H314.423V29.3H310.925V39.684H308.945V18.96H310.925ZM303.841 30.378C303.841 28.068 302.763 26.682 300.497 26.682C298.319 26.682 297.153 28.134 297.153 30.378C297.153 32.512 298.319 34.052 300.497 34.052C302.763 34.052 303.841 32.578 303.841 30.378ZM301.487 22.15H306.987V23.712H293.985V22.15H299.441V18.982H301.487V22.15ZM329.282 39.002H327.324V26.88H323.43V25.23H327.324V19.048H329.282V39.002ZM333.22 39.684H331.262V18.96H333.22V39.684ZM324.948 34.338C322.968 33.216 321.406 31.324 320.592 29.542C319.866 31.632 317.71 33.7 315.686 34.844L314.52 33.48C317.886 31.566 319.58 28.596 319.58 25.89V19.906H321.582V25.89C321.582 28.838 323.232 31.368 326.004 33.018L324.948 34.338ZM350.456 31.28V35.218H355.362V36.824H335.804V35.218H340.82V31.28H342.778V35.218H348.52V31.28H350.456ZM352.854 25.23C352.854 28.09 350.324 30.51 345.594 30.51C340.93 30.51 338.356 28.09 338.356 25.23C338.356 22.348 340.93 19.906 345.594 19.906C350.28 19.906 352.854 22.348 352.854 25.23ZM350.852 25.23C350.852 23.03 348.96 21.49 345.594 21.49C342.184 21.49 340.314 23.096 340.314 25.23C340.314 27.276 342.206 28.882 345.594 28.882C348.96 28.882 350.852 27.276 350.852 25.23ZM357.967 19.444H360.123L359.815 33.656H358.253L357.967 19.444ZM357.703 36.054H360.321V38.518H357.703V36.054Z" fill="#EEEEEE"/>
</g>
<defs>
<clipPath id="clip0_169_6421">
<rect width="383" height="65.0001" fill="white"/>
</clipPath>
</defs>
</svg>
