<svg width="95" height="32" viewBox="0 0 95 32" fill="none" xmlns="http://www.w3.org/2000/svg">
<path fill-rule="evenodd" clip-rule="evenodd" d="M0 29H56.8443V3H0V29Z" fill="#009782"/>
<path fill-rule="evenodd" clip-rule="evenodd" d="M60.7373 29H94.9996V3H60.7373V29Z" fill="#D89529"/>
<path fill-rule="evenodd" clip-rule="evenodd" d="M54.5078 29H67.7455V3H54.5078V29Z" fill="#080604"/>
<path fill-rule="evenodd" clip-rule="evenodd" d="M17.2453 21.6303H10.9204V18.8734H9.901V22.5323H17.2453V21.6303ZM13.0759 17.2334C13.5204 16.7858 13.7436 16.2617 13.7436 15.6712C13.7436 15.0559 13.5215 14.5261 13.0844 14.081C12.6415 13.6345 12.0128 13.4155 11.193 13.4155C10.379 13.4155 9.74565 13.6345 9.29434 14.081C8.84035 14.5261 8.61537 15.0559 8.61537 15.6712C8.61537 16.2617 8.84035 16.7858 9.28663 17.2334C9.73593 17.6838 10.3665 17.907 11.1797 17.907C12.0007 17.907 12.6335 17.6838 13.0759 17.2334ZM17.0342 9.7832H16.0141V13.1748H14.4175V14.0932H16.0141V15.7693H14.4175V16.6883H16.0141V19.8256H17.0342V9.7832ZM8.1416 12.6135H14.2175V11.7533H8.1416V12.6135ZM9.5723 10.7321H12.7356V9.87198H9.5723V10.7321ZM12.3736 16.6335C12.1133 16.9114 11.7203 17.0482 11.1913 17.0482C10.6554 17.0482 10.2574 16.9069 9.99701 16.6246C9.73593 16.3437 9.60628 16.0211 9.60628 15.6543C9.60628 15.2791 9.73816 14.9484 10.0043 14.6605C10.2661 14.3754 10.6635 14.231 11.1913 14.231C11.7203 14.231 12.1133 14.3754 12.3736 14.6605C12.6335 14.9484 12.7654 15.2791 12.7654 15.6543C12.7654 16.0269 12.6335 16.356 12.3736 16.6335Z" fill="#FEFEFE"/>
<path fill-rule="evenodd" clip-rule="evenodd" d="M32.662 22.8306H31.6549V15.9214H30.309V22.2362H29.304V10.0784H30.309V14.9556H31.6549V9.78271H32.662V22.8306ZM28.717 19.578C28.5358 19.6172 27.1189 19.7383 26.6123 19.7592C26.1143 19.789 25.6296 19.8058 25.1516 19.8058H24.2939V10.9788H27.8943V11.9112H25.3251V18.8572L26.8406 18.8285C27.1779 18.8186 28.5098 18.6986 28.717 18.6579V19.578Z" fill="#FEFEFE"/>
<path fill-rule="evenodd" clip-rule="evenodd" d="M42.0941 21.7913H47.1929V19.9253H42.0941V21.7913ZM41.0513 22.6677H48.2211V19.0636H41.0513V22.6677ZM49.5676 17.1624H45.1635V16.1892C45.9499 16.1479 46.6664 15.9777 47.2138 15.6816C47.7617 15.3881 48.0355 15.0009 48.0355 14.523C48.0355 14.0042 47.7203 13.5982 47.0902 13.3026C46.458 13.007 45.6419 12.8556 44.6362 12.8556C43.6388 12.8556 42.8274 13.007 42.1948 13.3026C41.5622 13.5982 41.2497 14.0042 41.2497 14.523C41.2497 15.0009 41.5193 15.3881 42.0589 15.6816C42.5996 15.9777 43.3088 16.1479 44.0973 16.1892V17.1624H39.7061V18.0518H49.5676V17.1624ZM40.589 12.1854H48.6818V11.3097H40.589V12.1854ZM42.6321 10.5554H46.6288V9.68213H42.6321V10.5554ZM46.2568 15.147C45.8002 15.2715 45.26 15.3327 44.6362 15.3327C44.0131 15.3327 43.4712 15.2715 43.0104 15.147C42.5473 15.0208 42.3161 14.8139 42.3161 14.5242C42.3161 14.2227 42.5473 14.0113 43.0104 13.8839C43.4712 13.7593 44.0131 13.6992 44.6362 13.6992C45.26 13.6992 45.8002 13.7593 46.2568 13.8839C46.7146 14.0113 46.9424 14.2227 46.9424 14.5242C46.9424 14.8139 46.7146 15.0208 46.2568 15.147Z" fill="#FEFEFE"/>
<path fill-rule="evenodd" clip-rule="evenodd" d="M60.866 10.1016H62.038C62.038 14.3102 65.8768 16.0046 65.8768 16.0046L65.3499 16.7975C65.3499 16.7975 60.866 14.8671 60.866 10.1016ZM57.5536 16.7975L57.0309 16.0046C57.0309 16.0046 60.866 14.3102 60.866 10.1016H62.038C62.038 14.8671 57.5536 16.7975 57.5536 16.7975ZM66.3837 21.4028H56.5225V20.4851H59.3858V16.9955H60.4363V20.4851H62.5418V16.9955H63.6071V20.4851H66.3837V21.4028Z" fill="#FEFEFE"/>
<path fill-rule="evenodd" clip-rule="evenodd" d="M60.8672 10.1113H62.0295V12.8431H60.8672V10.1113Z" fill="#FEFEFE"/>
<path fill-rule="evenodd" clip-rule="evenodd" d="M82.5105 18.762C81.8662 18.2793 80.9438 18.0415 79.7411 18.0415C78.5468 18.0415 77.6213 18.2793 76.9658 18.762C76.3101 19.2396 75.981 19.8445 75.981 20.5784C75.981 21.2992 76.3101 21.8982 76.9658 22.3701C77.6213 22.8462 78.5468 23.081 79.7411 23.081C80.9438 23.081 81.8662 22.8462 82.5105 22.3701C83.1528 21.8982 83.4776 21.2992 83.4776 20.5784C83.4776 19.8445 83.1528 19.2396 82.5105 18.762ZM81.4472 15.749C81.188 15.7869 79.8577 15.8074 79.6422 15.8255L79.7317 12.2601H78.7261L78.6087 15.8559C78.418 15.8682 78.1467 15.8728 77.8757 15.8728C77.6068 15.8728 77.1682 15.8758 76.8366 15.888L76.7218 12.2601H75.7141L75.8183 15.888H74.377V16.8059L78.7187 16.7768C79.835 16.7768 81.0233 16.7076 81.4472 16.6395V15.749ZM82.309 17.8038H83.3241V9.78271H82.309V17.8038ZM74.6531 11.6354H80.7462V10.7148H74.6531V11.6354ZM81.6679 21.7547C81.1622 22.0553 80.5219 22.2075 79.7393 22.2075C78.9526 22.2075 78.3021 22.0535 77.7883 21.7473C77.2758 21.4416 77.0195 21.0421 77.0195 20.5473C77.0195 20.0425 77.2758 19.6464 77.7883 19.3607C78.3021 19.0738 78.9526 18.93 79.7393 18.93C80.5219 18.93 81.1622 19.0779 81.6679 19.3695C82.1716 19.6609 82.4238 20.0629 82.4238 20.5784C82.4238 21.0608 82.1716 21.4552 81.6679 21.7547Z" fill="#FEFEFE"/>
<rect opacity="0.01" width="95" height="32" fill="#81DF24"/>
</svg>
