<svg width="141" height="32" viewBox="0 0 141 32" fill="none" xmlns="http://www.w3.org/2000/svg">
<path fill-rule="evenodd" clip-rule="evenodd" d="M66.4067 6.5624L64.8509 17.4463L61.5272 6.5624H61.4294L57.9089 6.56201H57.2284L54.5801 25.0856H58.7807L60.337 14.2017L63.6607 25.086H63.7585H67.2785H67.9591L70.6074 6.56279L66.4067 6.5624Z" fill="#C13CFE"/>
<mask id="mask0_185_2792" style="mask-type:alpha" maskUnits="userSpaceOnUse" x="71" y="6" width="15" height="20">
<path fill-rule="evenodd" clip-rule="evenodd" d="M71.0469 6H85.6302V25.6482H71.0469V6Z" fill="white"/>
</mask>
<g mask="url(#mask0_185_2792)">
<path fill-rule="evenodd" clip-rule="evenodd" d="M85.6102 10.0012C85.7084 9.2759 85.4432 8.54944 84.8438 7.89896C83.7478 6.7104 81.7682 6.00039 79.5468 6C76.0454 6 73.0477 7.79048 72.7221 10.0771C72.5953 10.9657 72.55 11.2986 72.4439 12.0219C72.259 13.2861 72.583 14.0677 73.6031 14.8099C74.5603 15.5073 77.6431 17.4995 78.4258 18.0027C78.6182 18.1265 79.5738 18.7844 79.4697 19.5684C79.4697 19.5684 79.3476 20.5181 79.2622 21.1157C79.1385 21.9816 78.3614 22.4605 77.4006 22.4605C76.2005 22.4605 75.5048 21.8672 75.626 21.0202C75.7203 20.3607 75.954 18.7253 75.954 18.7253L71.4859 18.7249L71.072 21.6197C70.9615 22.4417 71.2159 23.2211 71.8186 23.8735C72.8438 24.9845 74.5766 25.6483 76.7379 25.6483C80.0354 25.6483 83.7407 24.226 84.1183 21.5081C84.2602 20.4848 84.3369 20.0192 84.4172 19.4192C84.5818 18.186 84.0304 16.9023 82.3899 15.8629C81.5074 15.3037 79.3202 14.0051 78.2167 13.3256C77.8311 13.0883 77.2642 12.7355 77.3262 12.0388C77.3791 11.4502 77.5608 10.3975 77.5608 10.3975C77.661 9.69689 78.3022 9.19131 79.385 9.19131C80.5096 9.1917 81.1409 9.73331 81.0459 10.3979L80.7358 12.5647L85.2433 12.5651L85.6102 10.0012Z" fill="#C13CFE"/>
</g>
<path fill-rule="evenodd" clip-rule="evenodd" d="M43.9244 21.5301C40.7307 21.5301 38.1325 18.9704 38.1325 15.8242C38.1325 12.6779 40.7307 10.1179 43.9244 10.1179C47.1181 10.1179 49.7163 12.6779 49.7163 15.8242C49.7163 18.9704 47.1181 21.5301 43.9244 21.5301ZM43.9244 6C38.4259 6 33.9521 10.4073 33.9521 15.8242C33.9521 21.241 38.4259 25.6483 43.9244 25.6483C49.4233 25.6483 53.8962 21.241 53.8962 15.8242C53.8962 10.4073 49.4233 6 43.9244 6Z" fill="#C13CFE"/>
<mask id="mask1_185_2792" style="mask-type:alpha" maskUnits="userSpaceOnUse" x="18" y="6" width="12" height="24">
<path fill-rule="evenodd" clip-rule="evenodd" d="M18.1494 6.56201H29.7318V29.9999H18.1494V6.56201Z" fill="white"/>
</mask>
<g mask="url(#mask1_185_2792)">
<path fill-rule="evenodd" clip-rule="evenodd" d="M19.3306 8.7637V10.0897H22.7911C22.7911 10.0897 22.9067 21.3374 22.7756 22.5158C22.6448 23.6946 22.3411 25.6127 20.2012 26.6188C18.3555 27.4862 18.3177 28.3075 18.2001 29.0374C18.047 29.9844 18.2271 30.1046 18.9271 29.9358C21.6768 29.272 24.6034 28.1857 26.0833 25.507C26.8867 24.0533 27.2087 22.4786 27.2087 20.0885V10.0885C28.674 10.0725 29.7318 9.15101 29.7318 7.88686V6.56201H21.7674C20.3105 6.56201 19.3306 7.44707 19.3306 8.7637Z" fill="#C13CFE"/>
</g>
<path fill-rule="evenodd" clip-rule="evenodd" d="M15.1229 20.248C14.3664 20.248 13.8437 20.5621 13.2907 20.8949C12.5128 21.3629 11.6307 21.8928 9.75399 21.8928C6.59131 21.8928 4.01934 19.2012 4.01934 15.892C4.01934 12.5119 6.59131 9.76316 9.75399 9.76316C11.4168 9.76316 12.3279 10.3169 13.1313 10.806C13.7316 11.1699 14.2508 11.4863 14.9448 11.4863C16.368 11.4863 17.8499 9.92333 17.8499 9.92333C17.8499 9.92333 15.047 6.00244 9.75399 6.00244C4.19187 6.00244 0 10.2543 0 15.892C0 21.4553 4.19187 25.6504 9.75399 25.6504C15.1448 25.6504 17.9211 21.7283 17.9211 21.7283C17.9211 21.7283 16.7245 20.248 15.1229 20.248Z" fill="#C13CFE"/>
<path fill-rule="evenodd" clip-rule="evenodd" d="M119.987 21.507L122.119 6.56201H117.646L115.003 25.086H125.979L126.489 21.507H119.987Z" fill="#C13CFE"/>
<path fill-rule="evenodd" clip-rule="evenodd" d="M100.904 6.56201H87.5885L87.0781 10.1414H91.4994L89.3675 25.086H93.84L95.9723 10.1414H100.394L100.904 6.56201Z" fill="#C13CFE"/>
<mask id="mask2_185_2792" style="mask-type:alpha" maskUnits="userSpaceOnUse" x="127" y="6" width="14" height="20">
<path fill-rule="evenodd" clip-rule="evenodd" d="M127.66 6.56201H141V25.086H127.66V6.56201Z" fill="white"/>
</mask>
<g mask="url(#mask2_185_2792)">
<path fill-rule="evenodd" clip-rule="evenodd" d="M132.644 21.507L133.199 17.6139H138.646L139.156 14.0345H133.71L134.265 10.1426H140.489L141 6.56358L130.302 6.56201L127.66 25.086H138.636L139.147 21.507H132.644Z" fill="#C13CFE"/>
</g>
<path fill-rule="evenodd" clip-rule="evenodd" d="M116.222 6.56201H111.686L107.644 13.8485L106.098 6.56201H101.96L104.682 18.8029L103.785 25.086H108.287L109.176 18.8029L116.222 6.56201Z" fill="#C13CFE"/>
<rect opacity="0.01" width="141" height="32" fill="#81DF24"/>
</svg>
