<svg width="106" height="32" viewBox="0 0 106 32" fill="none" xmlns="http://www.w3.org/2000/svg">
<path fill-rule="evenodd" clip-rule="evenodd" d="M20.4294 17.9166V19.4108H0V17.9166H8.55256V15.8676H3.73956C3.32424 15.8676 2.95897 15.7258 2.65107 15.436C2.33932 15.1508 2.18502 14.7798 2.18502 14.3291V10.7625H14.8984V8.6905H2.18502V7.20117H17.8944V12.2776H5.20662V13.6977C5.20662 13.931 5.2479 14.0958 5.33538 14.1923C5.41865 14.2863 5.56875 14.3291 5.78918 14.3291H18.173V15.8676H11.8068V17.9166H20.4294ZM11.8978 20.6671C12.1473 21.6006 12.5916 22.4146 13.2361 23.1164C13.8802 23.813 14.5783 24.4016 15.3305 24.875C16.0779 25.3452 16.8221 25.7172 17.5579 25.9798C18.294 26.241 18.8794 26.4089 19.316 26.4663L18.4553 27.7777C18.0194 27.7272 17.4578 27.6098 16.7685 27.4224C16.0779 27.235 15.3427 26.9724 14.5618 26.6335C13.7802 26.2877 12.9947 25.8645 12.2134 25.3608C11.4324 24.8541 10.7215 24.2672 10.0864 23.5793C9.45351 24.2672 8.74814 24.8541 7.97035 25.3608C7.19711 25.8645 6.42806 26.2877 5.66042 26.6335C4.89487 26.9724 4.16292 27.235 3.47364 27.4224C2.78367 27.6098 2.21861 27.7272 1.76621 27.7777L0.909698 26.4663C1.34215 26.4089 1.92366 26.241 2.66261 25.9798C3.39842 25.7172 4.13842 25.3452 4.89487 24.875C5.64257 24.4016 6.34129 23.813 6.98543 23.1164C7.62536 22.4146 8.07427 21.6006 8.31918 20.6671H11.8978Z" fill="#FF4050"/>
<path fill-rule="evenodd" clip-rule="evenodd" d="M30.6747 20.348C31.2594 20.348 31.7232 20.3335 32.0693 20.3056C32.41 20.2763 32.7146 20.1504 32.9776 19.9363V15.1136H28.7678V13.5911H32.9776V7.20117H35.8936V27.7777H32.9776V21.5257C32.7599 21.6481 32.4674 21.7405 32.1022 21.8043C31.7357 21.8643 31.2594 21.8936 30.6747 21.8936H24.4213C23.8384 21.8936 23.4064 21.7405 23.1226 21.4332C22.8387 21.1301 22.6992 20.7653 22.6992 20.348V7.98569H31.0659V9.53025H25.6387V19.5876C25.6387 19.8225 25.6923 20.0032 25.8031 20.1418C25.9056 20.2825 26.099 20.348 26.3742 20.348H30.6747ZM37.9406 27.7773H40.8586V7.20117H37.9406V27.7773Z" fill="#FF4050"/>
<mask id="mask0_185_6551" style="mask-type:alpha" maskUnits="userSpaceOnUse" x="43" y="5" width="22" height="22">
<path fill-rule="evenodd" clip-rule="evenodd" d="M43.458 5H64.025V26.8031H43.458V5Z" fill="white"/>
</mask>
<g mask="url(#mask0_185_6551)">
<path fill-rule="evenodd" clip-rule="evenodd" d="M57.9785 8.63995C58.4761 9.01426 58.8705 9.45873 59.16 9.97652C59.4496 10.4957 59.5922 11.064 59.5922 11.6888C59.5922 12.2245 59.488 12.7153 59.2783 13.1685C59.0686 13.621 58.7737 14.029 58.3966 14.3879C58.0191 14.7534 57.5711 15.0541 57.0499 15.307C56.5269 15.5561 55.9479 15.736 55.3275 15.8479V17.3715H64.025V18.9178H43.458V17.3715H52.1612V15.87C51.5023 15.7595 50.9021 15.5817 50.3661 15.3396C49.8248 15.0969 49.3583 14.7962 48.9692 14.4377C48.579 14.0746 48.2729 13.668 48.0547 13.2039C47.8315 12.7444 47.7273 12.241 47.7273 11.6888C47.7273 11.064 47.87 10.4957 48.1595 9.97652C48.4484 9.45873 48.8435 9.01426 49.3421 8.63995H45.4965V7.13675H52.1612V5H55.3275V7.13675H61.9414V8.63995H57.9785ZM47.7736 26.8032C47.1493 26.8032 46.6751 26.6334 46.3559 26.2872C46.0332 25.9427 45.8743 25.48 45.8743 24.904V20.4424H61.2369V26.8032H47.7736ZM48.9434 24.7149C48.9434 25.0738 49.1242 25.2544 49.4851 25.2544H58.1865V21.9919H48.9434V24.7149ZM50.8897 11.5972C50.8897 11.9887 50.9617 12.3592 51.0906 12.7114C51.2262 13.0636 51.4141 13.3699 51.6651 13.6259C51.9172 13.8859 52.2075 14.0943 52.5464 14.25C52.8819 14.4065 53.2639 14.4816 53.6831 14.4816C54.1075 14.4816 54.4839 14.4065 54.8197 14.25C55.1552 14.0943 55.4486 13.8859 55.6883 13.6259C55.9316 13.3699 56.1152 13.0636 56.2413 12.7114C56.3635 12.3592 56.426 11.9887 56.426 11.5972C56.426 11.205 56.3635 10.8353 56.2413 10.4831C56.1152 10.1323 55.9316 9.82462 55.6883 9.56608C55.4486 9.30788 55.1552 9.10021 54.8197 8.9462C54.4839 8.78729 54.1075 8.71187 53.6831 8.71187C53.2639 8.71187 52.8819 8.78729 52.5464 8.9462C52.2075 9.10021 51.9172 9.30788 51.6651 9.56608C51.4141 9.82462 51.2262 10.1323 51.0906 10.4831C50.9617 10.8353 50.8897 11.205 50.8897 11.5972V11.5972Z" fill="#FF4050"/>
</g>
<path fill-rule="evenodd" clip-rule="evenodd" d="M81.0759 17.3588V21.7408H86.2575V23.2051H65.8281V21.7408H71.1014V17.3588H74.2184V21.7408H77.9582V17.3588H81.0759ZM66.8959 16.1808C67.8101 15.9463 68.7086 15.5809 69.5934 15.0826C70.4741 14.5873 71.2683 14.0195 71.9621 13.3704C72.6601 12.7269 73.2255 12.0337 73.6579 11.2932C74.0935 10.5517 74.309 9.80494 74.309 9.0472V7.20117H77.6094V9.0472C77.6094 9.80494 77.8301 10.5554 78.2706 11.3071C78.7149 12.0523 79.2894 12.7469 80.0028 13.393C80.7176 14.0408 81.5125 14.6089 82.3841 15.1055C83.2615 15.6025 84.1425 15.9606 85.0231 16.1808L84.117 17.4262C83.5267 17.3372 82.8707 17.1721 82.143 16.9259C81.4125 16.6834 80.6774 16.3615 79.9367 15.9606C79.1894 15.5586 78.4735 15.0922 77.7836 14.5481C77.0943 14.0092 76.488 13.401 75.9601 12.716C75.5112 13.3395 74.9503 13.9215 74.2768 14.4597C73.5998 15.0025 72.885 15.4815 72.1241 15.8968C71.3673 16.3084 70.6077 16.6499 69.8468 16.914C69.091 17.1837 68.4088 17.3515 67.8014 17.4262L66.8959 16.1808Z" fill="#FF4050"/>
<path fill-rule="evenodd" clip-rule="evenodd" d="M87.7705 17.6172V16.1096H89.949V9.48853H87.9072V7.97754H100.95V9.48853H98.8633V13.3807C98.8633 13.7801 98.819 14.2317 98.7269 14.7444C98.6359 15.2586 98.4783 15.7108 98.2635 16.1096H99.5395C99.7532 16.1096 100.012 16.0976 100.313 16.0853C100.616 16.0668 100.927 16.0463 101.241 16.0172C101.557 15.9853 101.862 15.9415 102.157 15.8888C102.446 15.8354 102.703 15.7741 102.918 15.6916V7.20117H105.93V18.945H102.918V17.1581C102.72 17.2358 102.475 17.3039 102.189 17.3649C101.903 17.4285 101.601 17.4758 101.274 17.5124C100.95 17.5532 100.619 17.5775 100.281 17.5942C99.9405 17.6089 99.6298 17.6172 99.3522 17.6172H87.7705ZM92.9108 9.48853V16.1096H95.5291C95.6079 15.9241 95.6706 15.7146 95.7146 15.4787C95.7617 15.2374 95.7979 14.9981 95.8304 14.7568C95.86 14.5083 95.8816 14.269 95.89 14.0331C95.8977 13.7986 95.8977 13.5792 95.8977 13.3807V9.48853H92.9108ZM99.2364 18.9946C100.057 18.9946 100.814 19.111 101.518 19.3469C102.217 19.5845 102.831 19.9124 103.349 20.3317C103.867 20.7514 104.27 21.2546 104.567 21.8431C104.858 22.4322 105.006 23.0692 105.006 23.7552C105.006 24.4597 104.858 25.1046 104.567 25.6907C104.27 26.2795 103.867 26.781 103.349 27.201C102.831 27.622 102.217 27.9507 101.518 28.1858C100.814 28.4258 100.057 28.5398 99.2364 28.5398C98.4155 28.5398 97.6581 28.4258 96.9533 28.1858C96.2541 27.9507 95.6403 27.622 95.1231 27.201C94.6046 26.781 94.2028 26.2795 93.9099 25.6907C93.6149 25.1046 93.4709 24.4597 93.4709 23.7552C93.4709 23.0692 93.6149 22.4322 93.9099 21.8431C94.2028 21.2546 94.6046 20.7514 95.1231 20.3317C95.6403 19.9124 96.2541 19.5845 96.9533 19.3469C97.6581 19.111 98.4155 18.9946 99.2364 18.9946V18.9946ZM99.2364 20.5258C98.7897 20.5258 98.3956 20.6182 98.0553 20.8031C97.7163 20.9842 97.4303 21.2272 97.2106 21.5312C96.9819 21.8383 96.8127 22.1891 96.7015 22.5756C96.5854 22.9662 96.5268 23.3581 96.5268 23.7552C96.5268 24.167 96.5854 24.5699 96.7015 24.9571C96.8127 25.346 96.9819 25.6907 97.2106 25.9885C97.4303 26.2836 97.7163 26.5249 98.0553 26.7074C98.3956 26.8953 98.7897 26.984 99.2364 26.984C99.6999 26.984 100.103 26.8953 100.442 26.7074C100.781 26.5249 101.063 26.2836 101.287 25.9885C101.511 25.6907 101.676 25.346 101.784 24.9571C101.891 24.5699 101.944 24.167 101.944 23.7552C101.944 23.3434 101.887 22.9402 101.771 22.5551C101.66 22.1638 101.489 21.8201 101.267 21.5213C101.042 21.2241 100.756 20.9842 100.417 20.8031C100.077 20.6182 99.6831 20.5258 99.2364 20.5258V20.5258Z" fill="#FF4050"/>
<rect opacity="0.01" x="1" width="105" height="32" fill="#81DF24"/>
</svg>
