<svg width="30" height="30" viewBox="0 0 30 30" fill="none" xmlns="http://www.w3.org/2000/svg">
<path d="M8.13822 18.5804L8.14057 18.5663L8.14251 18.5522L8.16026 18.4232L8.16289 18.404L8.16479 18.3847L8.18102 18.2196L8.18224 18.2072L8.18315 18.1947L8.19702 18.0053L8.2261 17.7057L8.22947 17.671L8.23042 17.636L8.24403 17.1307H8.24404L8.24414 17.1263L8.2593 16.4511L8.25949 16.4426L8.25954 16.4341L8.26488 15.4531H8.26491L8.2649 15.4459L8.26215 13.8086L8.26214 13.8054L8.25972 13.3766C8.23641 9.67103 11.1692 6.63478 14.8508 6.50437L15 6.50181L15.1492 6.50437C18.8308 6.63478 21.7636 9.67103 21.7403 13.3766L21.7379 13.8054L21.7379 13.8086L21.7351 15.4459L21.7351 15.4531L21.7405 16.4341L21.7405 16.4426L21.7407 16.4511L21.7558 17.1263L21.756 17.1307L21.7696 17.636L21.7705 17.671L21.7739 17.7057L21.803 18.0052L21.8168 18.1947L21.8178 18.2072L21.819 18.2196L21.8352 18.3847L21.8371 18.404L21.8397 18.4231L21.8575 18.5521L21.8594 18.5663L21.8618 18.5804C21.9343 19.0156 22.1446 19.4168 22.3946 19.7707C22.6499 20.1321 22.9871 20.5007 23.3861 20.8755C23.4588 20.9438 23.5 21.0391 23.5 21.1386C23.5 21.3377 23.3384 21.5 23.1379 21.5H6.86206C6.66163 21.5 6.5 21.3377 6.5 21.1386C6.5 21.0391 6.54115 20.9438 6.6139 20.8755L5.92922 20.1467L6.61391 20.8755C7.01291 20.5007 7.35011 20.1321 7.60539 19.7707C7.85541 19.4168 8.06565 19.0156 8.13822 18.5804Z" stroke="#EEEEEE" stroke-width="2"/>
<path d="M12 21.5V22.8424C12 24.3101 13.3431 25.5 15 25.5C16.6569 25.5 18 24.3101 18 22.8424V21.5" stroke="#EEEEEE" stroke-width="2"/>
<path d="M15 5.5V4.5" stroke="#EEEEEE" stroke-width="2" stroke-linecap="round"/>
</svg>
