<svg width="19" height="17" viewBox="0 0 19 17" fill="none" xmlns="http://www.w3.org/2000/svg">
<path fill-rule="evenodd" clip-rule="evenodd" d="M8.65282 16.5724C8.65282 16.5724 2.1768 10.8824 1.14848 8.99136C0.12016 7.09958 -0.233423 6.00223 0.151801 4.12822C0.537815 2.25422 1.71089 1.21559 1.71089 1.21559C1.71089 1.21559 2.72339 0.0510039 4.84409 0C7.92905 0 9.47231 3.26734 9.47231 3.26734C9.47231 3.26734 11.052 0.0255019 14.1796 0.0255019C16.3019 0.0255019 17.3136 1.24109 17.3136 1.24109C17.3136 1.24109 18.4622 2.25422 18.8482 4.12822C19.2334 6.00223 18.8798 7.09958 17.8515 8.99136C16.8232 10.8824 10.348 16.5724 10.348 16.5724C10.348 16.5724 9.59255 17.5345 8.65282 16.5724Z" fill="#EEEEEE"/>
</svg>
