<svg width="120" height="35" viewBox="0 0 120 35" fill="none" xmlns="http://www.w3.org/2000/svg">
<g clip-path="url(#clip0_9_12758)">
<mask id="mask0_9_12758" style="mask-type:alpha" maskUnits="userSpaceOnUse" x="0" y="7" width="18" height="22">
<path fill-rule="evenodd" clip-rule="evenodd" d="M0 7H18V29H0V7Z" fill="white"/>
</mask>
<g mask="url(#mask0_9_12758)">
<path fill-rule="evenodd" clip-rule="evenodd" d="M10.3369 29C3.67891 29 0 24.5739 0 18.0304C0 11.4559 3.98322 7 10.4592 7C13.0439 7 15.202 7.61545 16.8738 8.56624L16.1751 13.1457C14.5938 12.1306 12.7396 11.3324 10.5803 11.3324C6.96229 11.3324 5.1997 14.0365 5.1997 17.9998C5.1997 21.9945 7.02323 24.7896 10.642 24.7896C11.7971 24.7896 12.6177 24.5739 13.4705 24.1138V20.3341H9.82143L9.21359 16.4328H18.0002V26.7563C15.8106 28.201 13.2263 29 10.3369 29Z" fill="#ABC000"/>
</g>
<path fill-rule="evenodd" clip-rule="evenodd" d="M28.4076 29C25.5474 29 23.1507 28.3766 21 27.3797L21.7683 22.83C23.9504 24.0147 26.3793 24.8238 28.4994 24.8238C30.0054 24.8238 31.0511 24.171 31.0511 22.8933C31.0511 21.6775 30.4359 21.1162 27.4545 19.9634C23.2131 18.3117 21.3692 16.909 21.3692 13.3574C21.3692 9.21342 24.5653 7 28.6222 7C31.389 7 33.1712 7.52908 35.0159 8.4329L34.2162 12.921C32.3107 11.7992 30.3126 11.1762 28.6838 11.1762C27.086 11.1762 26.3177 11.8616 26.3177 12.8585C26.3177 13.9493 26.9016 14.4788 29.5439 15.5071C34.1546 17.2221 36 18.842 36 22.2707C36 26.9445 32.6184 29 28.4076 29Z" fill="#ABC000"/>
<path fill-rule="evenodd" clip-rule="evenodd" d="M50.407 29C47.5482 29 45.1517 28.377 43 27.3805L43.7672 22.8298C45.951 24.0153 48.3789 24.8245 50.4988 24.8245C52.0057 24.8245 53.0519 24.1716 53.0519 22.893C53.0519 21.6781 52.4366 21.1159 49.455 19.9639C45.2121 18.3121 43.3681 16.9094 43.3681 13.3576C43.3681 9.2135 46.5652 7 50.6232 7C53.389 7 55.1714 7.5291 57.0162 8.43295L56.216 12.9212C54.3108 11.7989 52.3142 11.1755 50.6832 11.1755C49.0853 11.1755 48.3169 11.8618 48.3169 12.8587C48.3169 13.9484 48.9009 14.4791 51.545 15.5074C56.156 17.2217 58 18.8416 58 22.2696C58 26.9445 54.6201 29 50.407 29Z" fill="#ABC000"/>
<path fill-rule="evenodd" clip-rule="evenodd" d="M73.7026 29V20.4169H66.2974V29H61V8H66.2974V15.8523H73.7026V8H79V29H73.7026Z" fill="#ABC000"/>
<path fill-rule="evenodd" clip-rule="evenodd" d="M111.09 12H110V19H111.013C112.938 19 114 17.8619 114 15.4128C114 13.1381 113.012 12 111.09 12ZM111.541 22.0296H110.203V29H105V8H111.754C116.865 8 120 10.2829 120 14.848C120 19.5964 116.623 22.0296 111.541 22.0296Z" fill="#ABC000"/>
<mask id="mask1_9_12758" style="mask-type:alpha" maskUnits="userSpaceOnUse" x="81" y="7" width="9" height="22">
<path fill-rule="evenodd" clip-rule="evenodd" d="M81 7H90V29H81V7Z" fill="white"/>
</mask>
<g mask="url(#mask1_9_12758)">
<path fill-rule="evenodd" clip-rule="evenodd" d="M88.4622 8.303C88.8971 7.85217 89.3904 7.54592 89.7062 7.42715C89.8179 7.38465 89.926 7.36122 90 7.35407V6.99976C89.9333 7.00452 89.8078 7.02319 89.7265 7.03789V7.03829C86.9631 7.58604 81 9.86562 81 18.0001C81 26.1349 86.9631 28.4141 89.7265 28.9614C89.8078 28.9769 89.9333 28.9956 90 29V28.6448C89.926 28.6385 89.8179 28.6143 89.7062 28.5718C89.3904 28.4534 88.8971 28.1479 88.4622 27.6971C86.7231 25.8934 86.2248 22.506 86.2739 18.0001C86.3218 13.4941 86.7231 10.1059 88.4622 8.303Z" fill="#ABC000"/>
</g>
<mask id="mask2_9_12758" style="mask-type:alpha" maskUnits="userSpaceOnUse" x="95" y="7" width="9" height="22">
<path fill-rule="evenodd" clip-rule="evenodd" d="M95 7H104V29H95V7Z" fill="white"/>
</mask>
<g mask="url(#mask2_9_12758)">
<path fill-rule="evenodd" clip-rule="evenodd" d="M96.5382 8.303C96.1043 7.85217 95.6101 7.54592 95.2938 7.42715C95.1811 7.38465 95.0749 7.36122 95 7.35407V6.99976C95.0667 7.00452 95.1922 7.02319 95.2735 7.03789V7.03829C98.0369 7.58604 104 9.86562 104 18.0001C104 26.1349 98.0369 28.4141 95.2735 28.9614C95.1922 28.9769 95.0667 28.9956 95 29V28.6448C95.0749 28.6385 95.1811 28.6143 95.2938 28.5718C95.6101 28.4534 96.1043 28.1479 96.5382 27.6971C98.2769 25.8934 98.7757 22.506 98.727 18.0001C98.6787 13.4941 98.2769 10.1059 96.5382 8.303Z" fill="#ABC000"/>
</g>
</g>
<rect opacity="0.01" width="120" height="35" fill="#81DF24"/>
<defs>
<clipPath id="clip0_9_12758">
<rect width="120" height="22" fill="white" transform="translate(0 7)"/>
</clipPath>
</defs>
</svg>
